<?xml version="1.0" encoding="utf-8"?>
<!-- Generator: Adobe Illustrator 15.1.0, SVG Export Plug-In . SVG Version: 6.00 Build 0)  -->
<!DOCTYPE svg PUBLIC "-//W3C//DTD SVG 1.1//EN" "http://www.w3.org/Graphics/SVG/1.1/DTD/svg11.dtd">
<svg version="1.1" id="Layer_1" xmlns="http://www.w3.org/2000/svg" xmlns:xlink="http://www.w3.org/1999/xlink" x="0px" y="0px"
	 width="900px" height="900px" viewBox="0 0 900 900" enable-background="new 0 0 900 900" xml:space="preserve">
<g transform="translate(0.000000,900.000000) scale(0.100000,-0.100000)">
	<path fill="#EDEBA6" d="M4139.003,8583.998c-9.004-11.001-42.002-13.999-134.004-13.999c-97.002,0-125-2.998-135-15
		c-8.999-11.001-35-15-105-15c-70,0-96.001-3.999-105-15c-8.999-10-32.002-15-75-15s-66.001-5-75-15s-32.002-15-73.999-15
		c-38.999,0-68.999-5-82.002-15c-10-7.998-37.998-15-60-15c-23.999,0-46.997-6.001-53.999-15c-7.002-7.998-27.002-15-45-15
		s-37.998-7.002-45-15s-27.002-15-45-15s-37.998-7.002-45-15c-7.998-8.999-28.999-15-56.001-15c-40,0-116.997-30-130-51.001
		c-2.998-5-17.998-8.999-33.999-8.999c-27.998,0-163.999-62.998-176.001-81.001c-2.998-5-16.001-8.999-27.998-8.999
		c-13.003,0-28.999-6.001-35-13.999c-7.002-8.003-23.003-17.002-36.001-20c-13.999-3.999-25-11.001-25-16.001
		c0-6.001-7.002-10-15-10c-27.002,0-100-43.999-137.002-82.002c-20-20.996-42.998-37.998-50.996-37.998
		c-9.004,0-43.003-27.002-77.002-60s-67.002-60-73.999-60c-15,0-126.001-112.002-126.001-126.001c0-6.001-33.999-46.001-75-88.999
		s-75-82.998-75-88.999s-17.998-31.001-40-56.001s-58.999-82.998-82.002-130c-23.999-47.002-52.998-95-65-107.998
		c-15-15-22.998-35-22.998-58.003c0-21.997-6.001-36.997-15-40c-7.998-3.999-15-12.998-15-21.001c0-7.998-12.998-37.998-30-67.998
		c-16.001-30-30-67.002-30-82.998c0-16.001-7.002-35-15-42.002S1580,6976,1580,6961c0-13.999-7.002-35-15-45
		c-7.998-11.001-15-41.001-15-67.002c0-28.999-6.001-51.001-15-58.999c-10-8.999-15-32.002-15-75c0-42.002-5-66.001-13.999-73.999
		c-12.002-10-15-63.003-15-306c0-242.998,2.998-296.001,15-306.001C1516.001,6021,1520,5995,1520,5940c0-57.002,3.999-80.996,15-90
		c8.999-7.998,15-30,15-60s6.001-52.002,15-60s15-30,15-60s6.001-52.002,15-60c7.998-7.002,15-29.004,15-50c0-24.004,5-40,15-44.004
		c8.999-2.998,15-17.998,15-38.994c0-19.004,7.002-40,15-47.002s15-25,15-40.996c0-28.008,33.999-104.004,51.001-115
		c5-3.008,8.999-13.008,8.999-23.008s7.002-23.994,15-30.996s15-22.998,15-35c0-12.998,7.002-25,15-29.004
		c7.998-2.998,15-15.996,15-30c0-13.994,3.999-26.992,8.999-30.996c6.001-2.998,22.002-30,36.001-60.996
		c13.999-30,36.001-66.006,47.998-80c12.002-14.004,24.004-34.004,27.002-45c7.998-34.004,25-22.002,27.998,20
		c2.002,21.992,10,45,18.003,50.996c21.001,19.004,21.001,442.002-1.001,460c-10,9.004-15,32.002-15,74.004
		c0,38.994-5,68.994-15,81.992c-7.998,10-15,31.006-15,45c0,14.004-7.002,34.004-15,45c-7.998,10-15,31.006-15,45
		c0,14.004-7.002,34.004-15,45c-7.998,10-15,31.006-15,45c0,14.004-7.002,34.004-15,45c-7.998,10-15,38.008-15,60
		c0,24.004-6.001,47.002-15,54.004c-12.002,10-15,37.002-15,120s-2.998,110-15,120c-22.002,17.998-22.002,242.002,0,260
		c10,8.999,15,32.002,15,77.001c0,46.997,3.999,65,15,68.999c7.998,3.999,15,13.999,15,22.998c0,10,12.998,33.003,30,51.001
		c16.001,17.998,30,38.999,30,45c0,17.998,43.999,55,66.001,55c11.001,0,52.998-33.999,96.997-77.998
		C2100,6664.999,2120,6637.997,2120,6617.997c0-13.999-3.999-27.998-7.998-30c-4.004-0.996-18.003-21.997-30-45.996
		C2061.001,6502.001,2060,6486,2060,6301c0-163.999,2.998-201.001,15-211.001c10-8.999,15-32.002,15-73.999
		c0-38.999,5-68.999,15-81.997c7.998-10,15-31.006,15-45c0-14.004,7.002-34.004,15-45c7.998-10,15-31.006,15-45
		c0-14.004,7.002-34.004,15-45c7.998-10,15-31.006,15-45c0-14.004,7.002-34.004,15-45c7.998-10,15-38.008,15-60
		c0-24.004,6.001-47.002,15-54.004c12.002-10,15-37.998,15-135s2.998-125,15-135c7.998-7.002,15-25,15-40s-7.002-32.998-15-40
		c-12.002-10-15-42.998-15-180s-2.998-170-15-180c-11.001-9.004-15-35-15-105s-3.999-95.996-15-105c-10-9.004-15-32.002-15-75
		s-5-65.996-15-75s-15-32.002-15-75s-5-65.996-15-75c-11.001-9.004-15-32.998-15-90s-3.999-80.996-15-90c-11.001-10-15-35-15-110
		s3.999-100,15-110c11.001-9.004,15-35,15-104.004c0-65.996,3.999-97.998,15-111.992c7.998-10,15-31.006,15-45
		c0-15,7.002-32.002,15-39.004s15-25,15-40.996c0-16.006,10-48.008,22.002-71.006C2228.999,3465,2342.998,3350,2368.999,3350
		c11.001,0,21.001-4.004,23.003-7.998c5.996-15,148.999-82.002,175-82.002c12.998,0,30.996-7.002,38.999-15
		c8.999-7.998,28.999-15,45-15c16.997,0,36.997-7.002,45-15c8.999-7.998,30-15,47.998-15c18.999,0,38.999-7.002,46.001-15
		s27.002-15,46.001-15c17.998,0,36.001-4.004,38.999-10c2.998-5,43.999-27.998,92.002-50.996
		c46.997-23.008,96.997-53.008,110.996-66.006c14.004-12.998,30-22.998,36.001-22.998s26.001-14.004,45-30
		c18.003-17.002,40-30,48.003-30c16.997,0,112.998-95.996,112.998-112.998c0-7.002,17.998-32.002,40-56.006
		c42.998-47.998,110-175,110-206.992c0-11.006,7.002-29.004,15-40c8.999-12.002,13.999-43.008,15-89.004
		c0-44.004,5-77.998,13.999-90.996c12.002-17.002,12.002-22.002,0-39.004c-7.998-10-13.999-30-13.999-44.004
		c0-13.994-13.999-45.996-30-70.996c-28.999-42.998-30-49.004-30-157.002c0-123.994,3.999-142.998,30-142.998
		c10,0,22.998-7.002,30-15s22.998-15,37.002-15c12.998,0,25.996-7.002,28.999-15c3.999-7.998,13.999-15,22.998-15
		c10,0,26.001-7.002,37.002-15c10-7.998,31.001-15,45-15c15,0,31.997-7.002,38.999-15s18.999-15,27.002-15
		c6.997,0,25-7.002,37.998-15.996c12.998-8.008,36.001-14.004,52.002-12.002L3855,1765l7.002,120c5,65.996,5,167.002,1.997,225
		c-6.997,127.002-3.999,132.002,83.003,127.998L4005,2235l5-250l5-250l42.998-2.998C4080.996,1730,4100,1725,4100,1720.996
		c0-3.994,20.996-7.998,47.998-8.994c26.006-1.006,96.006-4.004,156.006-7.002c62.998-4.004,111.992-2.998,116.992,2.002
		c8.008,7.998,10,97.002,7.002,430c0,68.994,2.998,72.998,75,72.998c40,0,67.998-5,75-12.002c6.006-7.998,10-105.996,11.006-247.998
		c0-129.004,0.996-237.998,0.996-242.002c0-15.996,112.998-7.998,132.002,9.004c15,12.998,38.994,15.996,127.998,15
		c60,0,112.002,2.998,115,7.998s5.996,112.998,7.002,242.002c0,135,5,237.998,10.996,245.996
		c12.998,16.006,122.998,16.006,134.004-0.996c3.994-6.006,7.998-112.998,7.998-237.002v-225l40,2.002c75,5,100,10,182.998,37.998
		c65,22.002,87.998,35.996,107.998,62.998c15,17.998,39.004,37.998,55,44.004l29.004,10v123.994c0,120-0.996,126.006-30,177.002
		c-25,46.006-30,64.004-30,124.004c0,50.996,4.004,73.994,15,82.998c10,9.004,15,32.002,15,75s5,65.996,15,75
		c7.998,7.002,15,27.998,15,47.002c0,20.996,5.996,35.996,15,38.994c7.998,4.004,15,15,15,26.006c0,12.002,14.004,33.994,30,50
		c17.002,15,30,35,30,42.998c0,17.002,157.998,175,175,175c7.002,0,27.998,12.998,45.996,30c19.004,15.996,39.004,30,45,30
		c6.006,0,32.002,20,57.002,45c35,32.998,55,45,77.002,45c20,0,39.004,10,57.998,30c20,20,39.004,30,59.004,30
		c15.996,0,37.998,7.002,48.994,15c10,7.998,31.006,15,45,15c14.004,0,34.004,7.002,45,15c10,7.998,31.006,15,45,15
		c36.006,0,95,25.996,102.002,45c4.004,9.004,19.004,15,36.006,15c30,0,112.998,35.996,118.994,52.002
		c2.002,3.994,12.002,7.998,22.998,7.998c10,0,32.002,14.004,47.002,30c16.006,15.996,36.006,30,44.004,30
		c35,0,127.998,152.002,127.998,209.004c0,15.996,7.002,33.994,15,40.996s15,25.996,15,42.002c0,15.996,7.002,35.996,15,43.994
		c12.002,12.002,15,42.002,15,138.008c0,97.998,2.998,125.996,15,135.996c19.004,15.996,19.004,54.004,0,70
		c-10.996,9.004-15,35-15,105s-4.004,95.996-15,105s-15,32.998-15,90s-4.004,80.996-15,90c-10,9.004-15,32.002-15,75
		s-5,65.996-15,75c-10.996,9.004-15,32.998-15,90s-4.004,80.996-15,90c-12.002,10-15,37.998-15,135s-2.998,125-15,135
		s-15,37.998-15,130s2.998,120,15,130s15,37.002,15,120s2.998,110,15,120c9.004,7.002,15,30,15,54.004c0,21.992,7.002,50,15,60
		c7.998,10.996,15,30.996,15,45c0,13.994,7.002,35,15,45c7.998,10.996,15,30.996,15,45c0,13.994,7.002,35,15,45
		c7.998,10.996,15,33.994,15,51.992c0,17.002,7.002,37.002,15,44.004c10,8.999,15,32.002,15,75s5,66.001,15,75
		c12.002,10,15,46.001,15,201.001c0,152.998-2.998,190-15,202.998c-7.998,8.003-15,22.002-15,30c0,8.999-12.998,28.999-30,43.999
		c-15.996,16.001-30,32.002-30,35c0,8.003,187.998,197.002,195.996,197.002c11.006,0,104.004-100,104.004-112.998
		c0-7.002,7.002-22.002,15-33.003c7.998-10,15-26.001,15-35s7.002-18.999,15-22.998c12.998-5,15-48.003,15-303.999
		c0-254.004-2.002-301.001-15-312.002c-10-8.999-15-32.002-15-75s-5-65.996-15-75c-7.998-7.002-15-27.998-15-47.002
		c0-20.996-5.996-35.996-15-38.994c-7.998-4.004-15-14.004-15-23.008c0-8.994-7.002-25-15-35c-7.998-10.996-15-30.996-15-45
		c0-13.994-7.002-35-15-45c-10-12.998-15-42.998-15-81.992c0-43.008-5-65-15-74.004c-12.998-10.996-15-49.004-12.998-262.998
		c2.998-219.004,5-251.006,18.994-260c13.008-7.998,22.002-4.004,43.008,18.994c13.994,16.006,25.996,34.004,25.996,40
		c0,6.006,10,22.002,22.998,36.006c26.006,27.998,67.002,102.002,67.002,120c0,7.002,10,22.002,22.998,32.998
		c22.998,20,67.002,95.996,67.002,115.996c0,6.006,7.002,17.002,15,25c7.998,9.004,15,31.006,15,49.004
		c0,19.004,4.004,35.996,9.004,39.004c15,10,50.996,85,50.996,108.994c0,12.002,7.002,31.006,15,41.006
		c7.998,10.996,15,40.996,15,66.992c0,29.004,5.996,51.006,15,59.004s15,30,15,60s5.996,52.002,15,60c12.002,10,15,37.998,15,135
		s2.998,125,15,135s15,37.002,15,125s-2.998,115-15,125s-15,40-15,151.001c0,108.999-2.998,141-15,152.998c-10,10-15,35-15,75
		s-5,65-15,75c-7.998,8.003-15,28.003-15,43.999c0,16.001-7.002,35-15,42.002s-15,28.999-15,50c0,23.999-5,40-15,43.999
		s-15,18.999-15,48.999c0,36.001-17.002,78.003-82.002,208.003c-45,90-92.002,172.998-105,183.999S7160,7441,7160,7447.997
		c0,23.003-45,97.002-82.002,134.004c-20.996,20.996-37.998,45-37.998,52.998c0,20-375,395-394.004,395c-7.998,0-35,20-60,45
		c-25.996,25-52.998,45-61.992,45c-8.008,0-25,10-37.002,22.998c-30,32.002-162.002,97.002-197.002,97.002
		c-15.996,0-30.996,3.999-34.004,8.999c-10.996,17.002-86.992,51.001-115,51.001c-15.996,0-33.994,7.002-40.996,15s-27.002,15-45,15
		s-37.998,7.002-45,15s-27.002,15-45,15s-37.998,7.002-45,15s-25.996,15-42.002,15c-15.996,0-35.996,7.002-43.994,15
		c-10,8.999-34.004,15-63.008,15c-30.996,0-52.998,5-60.996,15c-7.998,8.999-30,15-60,15s-52.002,6.001-60,15s-30,15-60,15
		s-52.002,6.001-60,15c-9.004,10-32.002,15-75,15s-65.996,5-75,15s-32.002,15-75,15s-65.996,5-75,15c-10,12.002-37.002,15-120,15
		c-79.004,0-110.996,3.999-119.004,13.999c-8.994,11.001-80.996,13.999-395.996,13.999S4147.998,8594.999,4139.003,8583.998z
		 M3850,5315c60-30,119.004-95.996,160.996-179.004c21.006-42.998,39.004-88.994,39.004-101.992c0-12.002,5-26.006,10-29.004
		c17.002-10,12.002-265.996-5-289.004c-7.998-10.996-15-28.994-15-40.996c0-25.996-64.004-157.002-85-175
		c-8.999-7.002-22.002-27.998-30-45.996c-7.002-18.008-22.002-41.006-32.002-51.006c-10-10.996-26.997-35.996-37.998-57.002
		c-11.001-20.996-25-40.996-32.002-42.998C3816,4300,3810,4292.001,3810,4284.003c0-7.002-12.998-28.008-28.999-46.006
		C3766,4220,3750,4195.996,3746,4185c-3.003-10.996-38.003-52.998-76.001-92.998c-38.999-41.006-70-77.998-70-82.998
		c0-15-70-88.008-91.001-94.004c-10-4.004-36.997-24.004-60-45.996c-26.997-26.006-50-39.004-67.998-39.004
		c-15,0-36.001-7.002-47.002-15c-26.997-20.996-271.001-20.996-297.998,0c-11.001,7.998-28.999,15-41.001,15
		s-52.002,15-91.001,34.004c-51.997,25.996-91.001,56.992-161.001,128.994c-50.996,52.002-92.998,101.006-92.998,110
		c0,7.998-6.001,17.002-12.998,20c-16.001,6.006-67.002,102.998-67.002,127.998c0,10-12.998,44.004-30,74.004
		c-16.001,30-30,64.004-30,75s-12.998,42.998-27.998,72.002c-44.004,80.996-55,157.002-50,322.002
		c3.999,125.996,7.998,147.998,26.997,180c13.003,20,27.002,35.996,32.002,35.996s8.999,5.996,8.999,14.004
		c0,6.992,17.002,33.994,37.998,60c27.002,32.998,61.001,57.998,125,90.996c49.004,25,99.004,45,112.002,45
		s26.001,4.004,28.999,7.998c3.003,5,42.002,12.002,87.002,15c45,4.004,86.997,11.006,92.998,15c6.001,5,53.003,12.002,103.999,15
		c52.002,2.998,99.004,10,105,15c7.002,5,61.001,12.002,122.002,16.006c60,3.994,113.999,10.996,120,15.996
		c12.998,10.996,143.999,17.998,280,15C3787.001,5332.998,3825,5327.001,3850,5315z M5545.996,5319.003
		c6.006-5,67.002-12.002,135-15c68.008-4.004,129.004-11.006,135-15c6.006-5,47.002-12.002,90-15
		c43.008-4.004,84.004-11.006,91.006-16.006c5.996-5,52.998-12.002,105-15s102.002-12.002,112.998-18.994
		c10.996-8.008,30.996-14.004,45.996-14.004c14.004,0,38.008-10.996,52.002-24.004c15-13.994,36.006-27.998,47.998-30.996
		c32.002-10,157.002-142.002,180-187.998c10-22.002,22.002-62.002,25-89.004c4.004-27.002,11.006-50.996,15-53.994
		c12.002-7.002,11.006-151.006-0.996-159.004c-5-2.998-10-17.998-10-32.998s-9.004-40-20-57.002c-10.996-15.996-20-40-20-52.002
		c0-12.998-12.998-47.998-30-77.998c-15.996-30-30-64.004-30-75s-12.998-45-30-75c-15.996-30-30-64.004-30-72.998
		c0-40-44.004-102.998-147.002-207.998c-88.994-92.002-120.996-118.008-182.002-148.008C6040,3845.996,5997.001,3830,5985,3830
		s-30-7.002-40.996-15c-14.004-10.996-50-14.004-145-15c-124.004,0-126.006,0-198.008,35.996
		c-58.994,29.004-93.994,57.002-186.992,151.006c-62.002,63.994-116.006,123.994-120,135c-3.008,10-23.008,37.998-45,60.996
		c-21.006,22.998-42.002,50-45,60c-3.008,10-16.006,29.004-29.004,42.998c-14.004,15-27.002,36.006-30.996,48.008
		c-4.004,10.996-20,35.996-35,53.994c-16.006,17.998-29.004,39.004-29.004,46.006c0,6.992-9.004,20.996-20.996,31.992
		c-11.006,10-44.004,66.006-72.002,123.008L4935,4695v185c0,227.002,4.004,239.004,130,364.004c75.996,75,90.996,85,127.998,88.994
		C5259.003,5340,5534.003,5329.003,5545.996,5319.003z M4605,4095c20-7.998,37.998-20.996,40.996-30
		c3.008-7.998,13.008-15,21.006-15c18.994,0,180-155.996,188.994-182.002c3.008-10,21.006-35,40-55.996
		c39.004-41.006,104.004-165,104.004-196.006c0-11.992,9.004-33.994,20-50.996c10.996-15.996,20-42.002,20-57.002
		s4.004-28.994,9.004-32.002c3.994-2.998,10.996-36.992,15-75.996c3.994-37.998,10.996-72.002,16.992-75
		c5-4.004,9.004-82.998,9.004-182.998c-0.996-140-4.004-181.006-15-196.006c-7.998-10.996-15-35.996-15-55.996
		s-7.002-52.002-15.996-70.996c-20-41.006-83.008-109.004-101.006-109.004c-7.002,0-22.002-5.996-32.998-12.002
		c-15-10-22.002-10-32.002,0c-5.996,6.006-23.994,12.002-38.994,12.002c-31.006,0-75,34.004-186.006,145
		c-90,90-140.996,125-182.998,125c-27.002,0-50.996-19.004-160.996-130.996l-130-131.006l-77.002-0.996
		c-86.006-2.002-112.998,12.002-126.006,65.996c-2.998,15-10.996,27.002-15.996,27.002c-6.001,0-10,10.996-10,25
		c0,12.998-7.998,27.998-17.002,34.004C3916,2877.998,3915,2902.001,3916,3170c0,262.998,1.997,292.998,16.997,302.002
		c11.001,5.996,17.002,22.002,17.002,47.002s5,40.996,15,45c7.998,2.998,15,15,15,25.996c0,12.002,7.002,27.998,15,35.996
		c7.998,9.004,15,24.004,15,34.004s7.002,20,15,24.004c7.998,2.998,15,16.992,15,30.996s4.004,25,10,25
		c5,0,12.998,12.002,15.996,25.996c4.004,14.004,20,39.004,35,55c16.006,16.006,29.004,37.002,29.004,45
		C4130,3885,4257.001,4010,4275.996,4010c7.002,0,33.008,20,58.008,44.004c25,25.996,55.996,45.996,71.992,48.994
		C4474.003,4112.998,4572.998,4109.003,4605,4095z"/>
	<path fill="#EDEBA6" d="M6010,2115.996l-45-11.992l-2.998-51.006c-2.002-28.994-9.004-57.002-17.002-62.998
		c-10.996-9.004-15-35.996-15-105c0-70-4.004-95.996-15-105s-15-32.998-15-90c0-72.998-2.002-77.998-30-102.998
		c-15.996-15-30-32.998-30-40c0-19.004-187.002-207.002-205-207.002c-7.998,0-24.004-5.996-35-12.002c-30.996-20-42.002,5-35,82.002
		c4.004,44.004,0.996,84.004-10,122.998c-7.998,32.002-15,92.998-15,136.006c0,60-2.998,80-15,85c-15,5-130-47.002-137.002-62.002
		c-0.996-4.004-20-17.998-40.996-31.006c-27.998-16.992-55-23.994-105-25c-47.002-0.996-76.006-7.998-96.006-20.996l-28.994-19.004
		l5.996-208.994c5-207.998,0-257.002-27.002-257.002c-6.992,0-18.994-7.002-25.996-15c-10-12.002-27.998-15-64.004-12.998L4955,1105
		l2.002,45c10,182.998,13.994,420,7.002,420.996C4922.998,1575,4845.996,1570,4802.001,1560
		c-41.006-7.998-57.002-7.998-67.998,0.996c-24.004,20-101.006,15-127.002-8.994c-22.002-20-22.002-22.998-15-179.004
		c3.994-87.002,8.994-188.994,10-227.998l2.998-70h-85h-85l-0.996,100c0,55-1.006,159.004-2.002,230.996l-2.002,130l-72.002,11.006
		c-40,5.996-102.998,7.998-138.994,5.996c-51.006-3.994-72.002-0.996-92.002,12.002c-16.006,10-41.006,15-69.004,12.998L4015,1575
		l5-160c7.002-232.998,5.996-280.996-9.004-299.004c-15-17.998-55.996-20.996-65.996-5c-3.999,5-17.002,14.004-28.999,19.004
		c-22.002,7.998-23.003,15-30,157.002c-8.999,205-23.999,302.998-48.003,327.002c-13.999,12.998-38.999,20-85.996,22.998
		c-53.003,2.998-76.001,10-110,33.994c-23.003,16.006-45,29.004-48.003,29.004c-2.998,0-31.997,14.004-66.001,30
		c-92.998,45.996-91.997,47.998-83.999-202.002C3450,1325.996,3450,1320,3431.001,1320c-11.001,0-23.003,4.004-26.001,10
		c-2.998,5-13.999,10-22.998,10c-9.004,0-32.002,14.004-51.001,30c-18.003,17.002-40,30-48.003,30
		c-16.997,0-172.998,157.002-172.998,174.004c0,6.992-7.002,20.996-15,31.992c-7.998,11.006-13.999,42.002-15,75
		c0,38.008-5,61.006-15,69.004c-11.001,9.004-15,35-15,105s-3.999,95.996-15,105c-10,7.998-15,30.996-15,65.996
		c0,29.004-2.998,55-7.002,57.002c-5,2.998-31.997,2.002-60,0l-52.998-5.996V2040c0-20.996-7.002-42.998-15-50
		c-22.002-19.004-22.002-470.996,0-490c10-9.004,15-32.002,15-75s5-65.996,15-75c8.999-7.998,15-29.004,15-55.996
		c0-40,30-117.002,51.001-130c5-3.008,8.999-16.006,8.999-29.004c0-12.002,7.002-25,15-29.004c7.998-2.998,15-15.996,15-30
		c0-13.994,3.999-26.992,8.999-30.996c6.001-2.998,21.001-29.004,35-57.998c13.999-27.998,43.003-72.002,65-97.002
		c23.003-25,41.001-50,41.001-55c0-15,172.998-185,187.998-185c6.001,0,29.004-17.002,50-37.998
		C3448.999,570.996,3637.002,470,3673.999,470c11.001,0,30-7.002,40-15C3725,447.002,3755,440,3781,440
		c28.999,0,51.001-5.996,58.999-15s30-15,60-15s52.002-5.996,60-15c9.004-10.996,32.998-15,90-15s80.996-4.004,90-15
		c19.004-22.998,680.996-22.998,700,0c9.004,10.996,32.998,15,90,15s80.996,4.004,90,15c7.998,9.004,30,15,60,15s52.002,5.996,60,15
		c7.002,7.998,27.002,15,44.004,15c17.998,0,40.996,7.002,51.992,15c10,7.998,29.004,15,41.006,15
		c23.994,0,98.994,35.996,108.994,50.996c3.008,5,16.006,9.004,29.004,9.004c12.002,0,25,7.002,29.004,15
		c2.998,7.998,11.992,15,20,15c25.996,0,98.994,42.998,140.996,82.002c20.996,20.996,44.004,37.998,50,37.998
		c12.998,0,155,142.002,155,155c0,5.996,20,32.998,45,60c24.004,27.998,45,55,45,60.996c0,6.006,10.996,22.002,22.998,36.006
		c34.004,37.002,97.002,165,97.002,197.998c0,15,7.002,32.998,15,40s15,27.002,15,45s7.002,37.998,15,45c10,9.004,15,32.002,15,75
		s5,65.996,15,75c22.002,17.998,22.002,530.996,0.996,550c-7.998,5.996-15.996,32.002-17.998,57.998
		c-2.002,25-7.002,46.006-12.998,47.998C6060,2127.002,6035,2122.998,6010,2115.996z"/>
</g>
</svg>
